<svg id="图层_1" data-name="图层 1" xmlns="http://www.w3.org/2000/svg" viewBox="0 0 28 28"><defs><style>.cls-1{fill:#e9f7ff;}.cls-2{fill:#fff7ae;}.cls-3{fill:#ea6d7f;}.cls-4{fill:#dd5e6c;}.cls-5{fill:#1c49b7;}.cls-6{fill:#fcef50;}</style></defs><title>头像</title><rect class="cls-1" width="28" height="28"/><path class="cls-2" d="M9.36,22s-4.26.78-5.15,4.42H23S21.79,21.89,17.65,22C13.84,22,9.36,22,9.36,22Z" transform="translate(1 1.63)"/><path class="cls-3" d="M11.43,17.57A5.9,5.9,0,0,1,9.92,22s2.84,2.79,7.31,0c0,0-1.41-1-1.31-6.91Z" transform="translate(1 1.63)"/><path class="cls-4" d="M16,15.17l-4.44,2.49,0,0-.06.06,5.63,4.07C16.67,21.25,15.9,19.57,16,15.17Z" transform="translate(1 1.63)"/><path class="cls-3" d="M8,8.17s-1.28,9.75,4.77,9.75A4.36,4.36,0,0,0,17,14.56s.42.17.9-.45A4.25,4.25,0,0,0,18.1,9L13.28,6.38,8.4,7.56Z" transform="translate(1 1.63)"/><path class="cls-5" d="M22.09,24.47h-17L5,24.69H22.23Z" transform="translate(1 1.63)"/><path class="cls-5" d="M22.63,25.48H4.52a2.14,2.14,0,0,0-.1.22H22.73Z" transform="translate(1 1.63)"/><path class="cls-5" d="M16,8.57a8.41,8.41,0,0,1-8.59-.33S5.73,7,5.8,6.48,8.37,4.24,8.37,4.24s5.74-3.72,9.29.64a3.05,3.05,0,0,1,2.52,3.33A4.83,4.83,0,0,1,19.69,10l-.81,1.78a2.16,2.16,0,0,0-.11-.9c-.28-.58-1.51-1.06-2.24.39C16.53,11.25,15.69,10.58,16,8.57Z" transform="translate(1 1.63)"/><path class="cls-4" d="M16.53,11.25A2.11,2.11,0,0,1,16,9.74a2.4,2.4,0,0,0,.57,2A1.29,1.29,0,0,1,16.53,11.25Z" transform="translate(1 1.63)"/><path class="cls-4" d="M16,9.12A3.94,3.94,0,0,1,16,8.57a8.35,8.35,0,0,1-8.12-.06c0,.13,0,.29,0,.48A8.4,8.4,0,0,0,16,9.12Z" transform="translate(1 1.63)"/><path class="cls-6" d="M10.3,11.68l-.46,3a.08.08,0,0,0,.08.1h.47a.09.09,0,0,0,.09-.09v-3A.09.09,0,0,0,10.3,11.68Z" transform="translate(1 1.63)"/></svg>